<?xml version="1.0" encoding="utf-8"?>
<!-- Generator: Adobe Illustrator 16.0.0, SVG Export Plug-In . SVG Version: 6.00 Build 0)  -->
<!DOCTYPE svg PUBLIC "-//W3C//DTD SVG 1.1//EN" "http://www.w3.org/Graphics/SVG/1.1/DTD/svg11.dtd">
<svg version="1.1" id="Layer_1" xmlns="http://www.w3.org/2000/svg" xmlns:xlink="http://www.w3.org/1999/xlink" x="0px" y="0px"
	 width="72px" height="72px" viewBox="0 0 72 72" enable-background="new 0 0 72 72" xml:space="preserve">
<g>
	<path fill="#FFFFFF" d="M58,36c0-12.131-9.869-22-22-22s-22,9.869-22,22c0,6.363,2.719,12.101,7.051,16.121l-6.465,6.465
		c-0.781,0.781-0.781,2.047,0,2.828C14.977,61.805,15.488,62,16,62s1.023-0.195,1.414-0.586l6.832-6.832
		C27.648,56.743,31.68,58,36,58s8.352-1.257,11.754-3.418l6.832,6.832C54.977,61.805,55.488,62,56,62s1.023-0.195,1.414-0.586
		c0.781-0.781,0.781-2.047,0-2.828l-6.465-6.465C55.281,48.101,58,42.363,58,36z M18,36c0-9.941,8.059-18,18-18s18,8.059,18,18
		s-8.059,18-18,18S18,45.941,18,36z"/>
	<path fill="#FFFFFF" d="M44,34h-6V24c0-1.104-0.896-2-2-2s-2,0.896-2,2v12c0,1.104,0.896,2,2,2h8c1.104,0,2-0.896,2-2
		S45.104,34,44,34z"/>
	<path fill="#FFFFFF" d="M59.662,8.01c-1.821-1.821-4.243-2.825-6.818-2.825c-2.576,0-4.997,1.003-6.818,2.825
		c-0.731,0.732-0.731,1.919,0,2.651L57.01,21.646c0.366,0.366,0.847,0.549,1.326,0.549s0.959-0.183,1.325-0.549
		c1.822-1.821,2.825-4.242,2.825-6.818C62.486,12.252,61.483,9.831,59.662,8.01z M58.122,17.455L50.218,9.55
		c0.805-0.402,1.699-0.614,2.626-0.614c1.573,0,3.054,0.613,4.167,1.727c1.113,1.113,1.726,2.592,1.726,4.166
		C58.736,15.755,58.524,16.649,58.122,17.455z"/>
	<path fill="#FFFFFF" d="M25.938,10.662c0.731-0.732,0.731-1.919,0-2.651c-1.821-1.821-4.242-2.825-6.818-2.825
		c-2.575,0-4.997,1.003-6.817,2.824c-1.822,1.821-2.825,4.243-2.825,6.818c0,2.576,1.003,4.998,2.825,6.818
		c0.366,0.366,0.846,0.549,1.325,0.549s0.96-0.183,1.326-0.549L25.938,10.662z M13.227,14.828c0-1.574,0.612-3.053,1.727-4.167
		c1.112-1.113,2.593-1.726,4.166-1.726c0.927,0,1.821,0.212,2.626,0.614l-7.904,7.905C13.438,16.649,13.227,15.755,13.227,14.828z"
		/>
</g>
</svg>
