<?xml version="1.0" encoding="utf-8"?>
<!-- Generator: Adobe Illustrator 16.0.0, SVG Export Plug-In . SVG Version: 6.00 Build 0)  -->
<!DOCTYPE svg PUBLIC "-//W3C//DTD SVG 1.1//EN" "http://www.w3.org/Graphics/SVG/1.1/DTD/svg11.dtd">
<svg version="1.1" id="Layer_1" xmlns="http://www.w3.org/2000/svg" xmlns:xlink="http://www.w3.org/1999/xlink" x="0px" y="0px"
	 width="72px" height="72px" viewBox="0 0 72 72" enable-background="new 0 0 72 72" xml:space="preserve">
<path fill="#FFFFFF" d="M68,30h-2v-6c0-2.209-1.791-4-4-4h-4v-4c0-2.209-1.791-4-4-4h-4c-2.209,0-4,1.792-4,4v14H26V16
	c0-2.209-1.792-4-4.001-4h-0.001h-4C15.789,12,14,13.791,14,16v4c0,0,0,0-0.001,0h-0.001h-4C7.789,20,6,21.791,6,24v6H4
	c-2.209,0-4,1.791-4,4v4c0,2.209,1.791,4,4,4h2v5.999C6,50.208,7.789,52,9.998,52h4H14v4c0,2.209,1.789,4,3.998,4h4
	C24.207,60,26,58.209,26,56V42h20v14c0,2.209,1.791,4,4,4h4c2.209,0,4-1.791,4-4v-4h4c2.209,0,4-1.791,4-4v-6h2c2.209,0,4-1.791,4-4
	v-4C72,31.791,70.209,30,68,30z M4,38v-4h2v4H4z M10,48V24h4v24H10z M22,56h-4v-8.001V23v-7h4V56z M26,38v-4h20v4H26z M54,56h-4V16
	h4v7v25V56z M62,48h-4V24h4V48z M68,38h-2v-4h2V38z"/>
</svg>
