<?xml version="1.0" encoding="utf-8"?>
<!-- Generator: Adobe Illustrator 16.0.0, SVG Export Plug-In . SVG Version: 6.00 Build 0)  -->
<!DOCTYPE svg PUBLIC "-//W3C//DTD SVG 1.1//EN" "http://www.w3.org/Graphics/SVG/1.1/DTD/svg11.dtd">
<svg version="1.1" id="Layer_1" xmlns="http://www.w3.org/2000/svg" xmlns:xlink="http://www.w3.org/1999/xlink" x="0px" y="0px"
	 width="229.644px" height="49.379px" viewBox="0 0 229.644 49.379" enable-background="new 0 0 229.644 49.379"
	 xml:space="preserve">
<g>
	<path d="M229.644,26.762c-0.051-1.811-0.638-3.24-1.759-4.311c-1.123-1.096-2.526-1.633-4.21-1.633
		c-1.734,0-3.188,0.561-4.361,1.709c-1.174,1.123-1.761,2.602-1.761,4.463c0,1.865,0.587,3.369,1.761,4.518
		c1.174,1.146,2.627,1.734,4.361,1.734c1.914,0,3.495-0.639,4.693-1.889c0.434-0.484,0.434-1.275-0.051-1.656
		c-0.586-0.408-1.199-0.309-1.684,0.1c-0.943,0.791-1.684,1.148-2.831,1.148c-1.938,0-3.418-1.148-3.647-2.984h8.289
		C229.083,27.961,229.644,27.451,229.644,26.762 M220.156,26.049c0.229-1.812,1.657-2.934,3.52-2.934
		c1.812,0,3.163,1.096,3.393,2.934H220.156z M215.616,26.762c-0.052-1.811-0.638-3.24-1.76-4.311
		c-1.122-1.096-2.526-1.633-4.21-1.633c-1.733,0-3.188,0.561-4.361,1.709c-1.173,1.123-1.76,2.602-1.76,4.463
		c0,1.865,0.587,3.369,1.76,4.518c1.174,1.146,2.628,1.734,4.361,1.734c1.914,0,3.495-0.639,4.693-1.889
		c0.434-0.484,0.434-1.275-0.05-1.656c-0.587-0.408-1.199-0.309-1.684,0.1c-0.944,0.791-1.684,1.148-2.832,1.148
		c-1.938,0-3.417-1.148-3.647-2.984h8.29C215.054,27.961,215.616,27.451,215.616,26.762 M206.126,26.049
		c0.23-1.812,1.658-2.934,3.52-2.934c1.812,0,3.164,1.096,3.394,2.934H206.126z M197.428,20.818c-1.761,0-3.265,0.588-4.516,1.734
		c-1.224,1.148-1.836,2.654-1.836,4.49s0.612,3.342,1.836,4.488c1.251,1.148,2.755,1.711,4.516,1.711
		c1.402,0,2.602-0.357,3.647-1.098c0.535-0.383,0.689-1.123,0.306-1.76c-0.331-0.535-1.275-0.664-1.812-0.281
		c-0.662,0.383-1.377,0.588-2.142,0.588c-1.046,0-1.913-0.332-2.653-1.021c-0.739-0.689-1.097-1.557-1.097-2.627
		c0-1.072,0.357-1.938,1.097-2.627c0.74-0.689,1.633-1.047,2.653-1.047c0.765,0,1.479,0.203,2.142,0.588
		c0.536,0.383,1.48,0.254,1.812-0.281c0.384-0.637,0.229-1.379-0.306-1.76C200.03,21.176,198.831,20.818,197.428,20.818
		 M179.521,26.48c0-1.352,0.383-2.346,1.173-2.982c0.792-0.664,1.71-0.996,2.78-0.996c1.837,0,2.908,1.328,2.908,3.547v6.199
		c-0.076,1.121,1.762,1.121,1.684,0v-6.199c0.025-3.266-1.709-5.23-4.592-5.23c-1.53,0-3.264,0.766-3.953,2.221v-1.227
		c0.076-1.122-1.76-1.122-1.684,0v10.436c-0.076,1.121,1.76,1.121,1.684,0V26.48z M173.833,30.793
		c0.281-0.408,0.153-0.943-0.255-1.174c-0.383-0.281-0.79-0.178-1.174,0.307c-0.918,1.096-2.066,1.633-3.469,1.633
		c-2.244,0-3.979-1.506-4.285-3.775h9.336c0.407,0,0.791-0.359,0.791-0.793c0-1.861-0.536-3.365-1.633-4.488
		c-1.098-1.123-2.5-1.684-4.209-1.684c-1.734,0-3.163,0.561-4.311,1.709c-1.148,1.123-1.71,2.602-1.71,4.463
		c0,1.865,0.562,3.369,1.71,4.518c1.147,1.146,2.602,1.734,4.311,1.734C170.951,33.242,172.788,32.348,173.833,30.793
		 M164.65,26.201c0.331-2.244,2.041-3.699,4.285-3.699c2.168,0,3.775,1.428,4.106,3.699H164.65z M160.722,22.631
		c0.586,0.1,0.943-0.078,1.097-0.51c0.128-0.486-0.103-0.945-0.537-1.073c-0.434-0.153-0.919-0.229-1.453-0.229
		c-1.708,0-2.856,0.994-3.419,2.959v-1.965c0.077-1.122-1.759-1.122-1.684,0v10.436c-0.075,1.121,1.761,1.121,1.684,0v-3.701
		c0-1.709,0.281-3.137,0.842-4.285c0.588-1.146,1.429-1.734,2.577-1.734C159.982,22.527,160.287,22.553,160.722,22.631
		 M150.67,21.812c0.077-1.122-1.759-1.122-1.683,0v1.227c-0.843-1.43-2.653-2.221-4.49-2.221c-1.734,0-3.188,0.561-4.361,1.709
		c-1.148,1.123-1.734,2.602-1.734,4.463c0,1.865,0.586,3.369,1.734,4.518c1.173,1.146,2.627,1.734,4.361,1.734
		c1.811,0,3.647-0.842,4.49-2.297v1.303c-0.076,1.121,1.76,1.121,1.683,0V21.812z M140.11,26.99c0-1.35,0.408-2.422,1.251-3.238
		c0.841-0.816,1.887-1.225,3.137-1.225c1.174,0,2.22,0.408,3.111,1.199c0.918,0.791,1.379,1.889,1.379,3.264
		c0,1.404-0.434,2.527-1.302,3.344c-0.842,0.791-1.913,1.197-3.188,1.197c-1.25,0-2.296-0.434-3.137-1.275
		C140.518,29.389,140.11,28.293,140.11,26.99 M125.316,31.049c0.842,1.428,2.653,2.193,4.489,2.193c1.735,0,3.188-0.562,4.337-1.684
		c1.173-1.123,1.76-2.604,1.76-4.465s-0.587-3.367-1.76-4.516c-1.148-1.172-2.602-1.76-4.337-1.76c-1.811,0-3.647,0.867-4.489,2.322
		v-1.328c0.076-1.122-1.76-1.122-1.684,0v16.199c-0.076,1.123,1.76,1.123,1.684,0V31.049z M134.193,27.094
		c0,1.352-0.408,2.424-1.25,3.24c-0.842,0.791-1.888,1.197-3.138,1.197c-1.173,0-2.22-0.381-3.138-1.172
		c-0.893-0.791-1.352-1.889-1.352-3.266c0-1.402,0.434-2.525,1.275-3.342c0.867-0.816,1.939-1.225,3.214-1.225
		c1.25,0,2.271,0.434,3.112,1.303C133.759,24.695,134.193,25.791,134.193,27.094 M112.179,30.461
		c0.51,1.709,2.193,2.781,4.004,2.781c1.25,0,2.271-0.332,3.113-0.971c0.842-0.662,1.25-1.504,1.25-2.525
		c0-1.836-0.996-2.984-3.01-3.469l-1.633-0.383c-1.353-0.332-1.939-0.994-1.761-1.988c0.128-0.842,1.071-1.455,2.22-1.455
		c0.918,0,1.556,0.332,1.913,0.971c0.28,0.508,0.638,0.713,1.046,0.584c0.434-0.127,0.739-0.609,0.561-1.045
		c-0.561-1.428-1.734-2.143-3.52-2.143c-1.965,0-3.648,1.174-3.878,2.832c-0.127,1.326,0.153,2.297,0.842,2.883
		c0.714,0.535,1.276,0.791,2.169,0.994l1.658,0.383c1.147,0.279,1.709,0.893,1.709,1.836c0,1.123-0.996,1.889-2.525,1.889
		c-1.353,0-2.219-0.51-2.627-1.531c-0.179-0.535-0.511-0.738-0.969-0.637C112.307,29.568,112.051,30.027,112.179,30.461
		 M100.394,26.48c0-1.352,0.383-2.346,1.173-2.982c0.792-0.664,1.709-0.996,2.781-0.996c1.836,0,2.908,1.328,2.908,3.547v6.199
		c-0.077,1.121,1.76,1.121,1.683,0v-6.199c0.026-3.266-1.708-5.23-4.591-5.23c-1.531,0-3.266,0.766-3.954,2.221v-1.227
		c0.077-1.122-1.76-1.122-1.683,0v10.436c-0.077,1.121,1.76,1.121,1.683,0V26.48z M94.655,21.812c0.076-1.122-1.761-1.122-1.684,0
		v1.227c-0.842-1.43-2.653-2.221-4.49-2.221c-1.734,0-3.188,0.561-4.362,1.709c-1.147,1.123-1.735,2.602-1.735,4.463
		c0,1.865,0.587,3.369,1.735,4.518c1.174,1.146,2.627,1.734,4.362,1.734c1.812,0,3.648-0.842,4.49-2.297v1.303
		c-0.077,1.121,1.76,1.121,1.684,0V21.812z M84.094,26.99c0-1.35,0.408-2.422,1.25-3.238s1.887-1.225,3.137-1.225
		c1.173,0,2.22,0.408,3.112,1.199c0.918,0.791,1.377,1.889,1.377,3.264c0,1.404-0.434,2.527-1.301,3.344
		c-0.841,0.791-1.913,1.197-3.188,1.197c-1.25,0-2.295-0.434-3.137-1.275C84.502,29.389,84.094,28.293,84.094,26.99 M80.217,22.631
		c0.587,0.1,0.944-0.078,1.097-0.51c0.127-0.486-0.102-0.945-0.536-1.073c-0.434-0.153-0.918-0.229-1.454-0.229
		c-1.709,0-2.857,0.994-3.418,2.959v-1.965c0.076-1.122-1.76-1.122-1.684,0v10.436c-0.076,1.121,1.76,1.121,1.684,0v-3.701
		c0-1.709,0.28-3.137,0.841-4.285c0.587-1.146,1.429-1.734,2.577-1.734C79.477,22.527,79.784,22.553,80.217,22.631 M69.095,17.35
		c0.077-1.123-1.76-1.123-1.684,0v3.725h-1.505c-1.02,0-1.02,1.529,0,1.529h1.505v9.645c-0.076,1.121,1.761,1.121,1.684,0v-9.645
		h1.861c1.021,0,1.021-1.529,0-1.529h-1.861V17.35z"/>
	<g>
		<path fill="#FF705C" d="M20.573,34.713l-0.377-0.729c-0.045-0.367-0.388-1.404-0.639-1.693c-0.242-0.482-0.476-0.932-0.682-1.141
			c-0.057-0.057-0.139-0.076-0.214-0.055c-0.058-0.053-0.133-0.098-0.229-0.098c-0.114,0-0.197,0.064-0.246,0.104
			c-0.12-0.129-0.307-0.152-0.418-0.031l-0.385,0.193c-0.232,0.109-0.515,0.24-0.614,0.566l-1.088,0.564
			c-0.104,0.055-0.146,0.182-0.091,0.287l0.001,0.002l-0.163,0.082l1.104-3.475l0.002,0.002c0.115,0.033,0.231-0.027,0.268-0.139
			l1.204-3.787c0.017-0.055,0.012-0.111-0.014-0.164c-0.025-0.049-0.07-0.086-0.125-0.104l-0.003-0.002l0.627-1.969
			c0.035-0.111-0.026-0.232-0.139-0.268H18.35l1.563-4.916c0.036-0.111-0.024-0.23-0.136-0.266l-0.006-0.002l0.404-1.271
			c0.022-0.07,0.006-0.15-0.044-0.205c-0.131-0.147-0.083-0.285,0.065-0.587c0.088-0.18,0.188-0.384,0.185-0.604
			c-0.001-0.079-0.046-0.151-0.117-0.186c-0.022-0.013-0.037-0.021-0.045-0.024c0.009-0.023,0.026-0.059,0.04-0.086
			c0.016-0.033,0.033-0.068,0.048-0.104c0.074-0.168,0.088-0.318,0.102-0.463c0.006-0.066,0.012-0.135,0.026-0.207
			c0.01-0.049,0.028-0.094,0.045-0.141c0.032-0.088,0.07-0.189,0.077-0.316c0.019-0.346,0.007-0.576-0.312-0.843l-0.068-0.059
			c-0.12-0.104-0.234-0.202-0.439-0.272c-0.05-0.016-0.124-0.029-0.204-0.041c-0.059-0.009-0.17-0.025-0.191-0.033
			c-0.234-0.225-1.234-0.736-1.675-0.787c-0.511-0.174-0.995-0.328-1.308-0.328c-0.083,0.002-0.155,0.049-0.189,0.121
			c-0.192,0.009-0.305,0.126-0.335,0.349c-0.001,0.005-0.001,0.011-0.002,0.016c-0.143-0.003-0.228,0.058-0.267,0.108
			c-0.023,0.031-0.056,0.088-0.054,0.168l-0.144,0.436c-0.091,0.252-0.204,0.559-0.044,0.871l-0.395,1.24
			c-0.035,0.113,0.026,0.232,0.138,0.268l0.002,0.001l-0.091,0.288c-0.017,0.055-0.012,0.112,0.014,0.162
			c0.026,0.051,0.07,0.088,0.124,0.105l0.003,0.001l-0.559,1.761c-0.017,0.053-0.012,0.111,0.014,0.162
			c0.027,0.051,0.071,0.088,0.125,0.104l0.002,0.001l-1.384,4.354c-0.035,0.111,0.026,0.23,0.136,0.268l0.006,0.001l-2.034,6.417
			c-0.143,0.244-0.203,0.533-0.261,0.812c-0.085,0.414-0.159,0.771-0.463,0.936c-0.019,0.01-0.036,0.023-0.051,0.037
			c-0.134,0.135-0.153,0.322-0.168,0.475c-0.024,0.238-0.038,0.238-0.151,0.238c-0.086,0-0.177,0.059-0.206,0.148l-0.097,0.305
			c-0.095,0.119-0.106,0.271-0.114,0.387c-0.003,0.049-0.01,0.131-0.014,0.145l-0.091,0.004c-0.104-0.012-0.194,0.051-0.224,0.146
			l-0.063,0.209c-0.125,0.426-0.233,0.797-0.652,0.924c-0.052,0.016-0.097,0.051-0.124,0.1c-0.438,0.783-0.875,1.545-1.392,2.227
			c-0.076-0.156-0.174-0.303-0.271-0.447c-0.218-0.328-0.408-0.611-0.304-0.924C6.786,34.023,6.79,34,6.79,33.979
			c0.002-0.189-0.116-0.332-0.21-0.443c-0.137-0.166-0.136-0.166-0.05-0.248c0.069-0.064,0.086-0.168,0.043-0.252L6.436,32.77
			c-0.015-0.148-0.113-0.26-0.188-0.344c-0.029-0.031-0.077-0.086-0.084-0.088c0,0,0.01-0.023,0.064-0.066
			c0.08-0.062,0.104-0.174,0.057-0.264l-0.1-0.186c-0.23-0.422-0.361-0.697-0.162-1.045c0.027-0.049,0.035-0.107,0.02-0.162
			c-0.381-1.408-0.666-2.588-0.573-3.867c0.003-0.041-0.005-0.078-0.024-0.115l-0.382-0.736c-0.011-0.021-0.023-0.039-0.04-0.055
			c-0.034-0.035-0.19-0.156-0.428-0.027c-0.043-0.004-0.083-0.01-0.123-0.016C4.2,25.762,3.894,25.791,3.482,26
			c-0.002,0-0.003,0-0.003,0c-0.467,0-1.23,0.371-2.4,1.168c-0.182,0.127-0.384,0.273-0.519,0.422
			c-0.103,0.049-0.204,0.119-0.241,0.232c-0.02,0.057-0.017,0.111-0.006,0.154c-0.036,0.018-0.09,0.039-0.17,0.068
			c-0.059,0.02-0.105,0.064-0.127,0.121c-0.023,0.057-0.021,0.121,0.008,0.178l0.125,0.24c0.009,0.02-0.006,0.092-0.016,0.139
			c-0.021,0.098-0.053,0.25,0.01,0.396c-0.029,0.037-0.052,0.08-0.063,0.129c-0.029,0.127,0.028,0.223,0.079,0.297
			c-0.02,0.582,0.159,1.123,0.372,1.627c-0.044,0.045-0.081,0.102-0.096,0.17c-0.031,0.137,0.041,0.24,0.079,0.295
			c0,0,0.009,0.016,0.017,0.029c-0.058,0.07-0.089,0.143-0.098,0.221c-0.018,0.18,0.096,0.303,0.179,0.395
			c0.024,0.025,0.064,0.068,0.069,0.059c-0.007,0.043,0.001,0.086,0.021,0.125l0.057,0.109c-0.056,0.072-0.087,0.148-0.094,0.229
			c-0.017,0.186,0.102,0.318,0.189,0.416c0.028,0.031,0.077,0.086,0.083,0.096c-0.002,0.02,0,0.041,0.003,0.059
			c0.046,0.234,0.184,0.432,0.316,0.621c0.204,0.293,0.324,0.482,0.214,0.707c-0.029,0.061-0.029,0.131,0.003,0.191l0.095,0.182
			l-0.004,0.004c-0.103,0.053-0.144,0.182-0.09,0.285l1.664,3.213h0c-0.051,0.025-0.089,0.07-0.106,0.125
			c-0.018,0.053-0.013,0.111,0.013,0.16l1.119,2.162c0.669,1.293,1.99,2.096,3.448,2.096c0.614,0,1.229-0.15,1.779-0.434
			l1.182-0.613c0.05-0.025,0.088-0.07,0.105-0.125c0.017-0.053,0.012-0.111-0.014-0.162l-0.001-0.002l1.73-0.896
			c0.05-0.025,0.087-0.07,0.105-0.123c0.017-0.055,0.012-0.113-0.014-0.162L12.478,40.6l4.329-2.24
			c0.104-0.055,0.145-0.182,0.091-0.287l-0.002-0.004l1.111-0.574c0.068-0.035,0.111-0.104,0.115-0.182
			c0.006-0.188,0.121-0.244,0.421-0.344c0.184-0.061,0.391-0.129,0.537-0.285c0.054-0.059,0.072-0.141,0.046-0.215
			c-0.011-0.031-0.016-0.053-0.02-0.062c0.024-0.008,0.061-0.016,0.086-0.021c0.1-0.021,0.242-0.051,0.335-0.164l0.092-0.049
			c0.089-0.049,0.177-0.096,0.275-0.141c0.276-0.125,0.318-0.17,0.419-0.455c0.023-0.064,0.062-0.129,0.104-0.197
			c0.089-0.148,0.2-0.332,0.179-0.586C20.593,34.766,20.585,34.736,20.573,34.713z"/>
		<path fill="#687BFF" d="M45.625,34.838c-0.022-0.055-0.08-0.102-0.133-0.123c-0.04-0.016-0.077-0.031-0.108-0.045
			c0.008,0.002,0.015,0.002,0.02,0.002c0.085,0,0.169-0.053,0.204-0.129c0.034-0.08,0.017-0.172-0.043-0.234
			c-0.045-0.049-0.058-0.086-0.078-0.156c-0.025-0.09-0.062-0.213-0.182-0.334c-0.019-0.021-0.042-0.037-0.068-0.049l-0.754-0.324
			c-0.267-0.254-1.19-0.838-1.567-0.9c-0.493-0.221-0.957-0.42-1.253-0.449c-0.078-0.004-0.154,0.027-0.197,0.092
			c-0.191-0.02-0.319,0.092-0.366,0.307c-0.146-0.018-0.241,0.041-0.284,0.094c-0.022,0.025-0.053,0.074-0.059,0.146l-0.174,0.395
			c-0.111,0.232-0.246,0.512-0.116,0.828l-0.481,1.125c-0.048,0.107,0.002,0.232,0.109,0.279l0.004,0.002l-0.109,0.252
			c-0.022,0.053-0.023,0.111-0.002,0.164c0.021,0.053,0.062,0.094,0.114,0.115l0.002,0.002l-0.305,0.711
			c-0.009-0.014-0.018-0.029-0.026-0.043c-0.067-0.111-0.142-0.238-0.141-0.312c0-0.027-0.005-0.055-0.015-0.08l-0.13-0.326
			c0.217-0.301,0.017-0.648-0.123-0.887c-0.077-0.133-0.157-0.271-0.165-0.404c-0.075-0.344-0.245-0.691-0.411-1.027
			c-0.254-0.52-0.495-1.008-0.377-1.418c0.013-0.043,0.011-0.094-0.007-0.137l-0.191-0.477h0.002
			c0.052-0.021,0.095-0.062,0.117-0.113c0.022-0.053,0.023-0.111,0.002-0.164l-2.386-5.973l0.002-0.002
			c0.052-0.02,0.094-0.061,0.117-0.113c0.022-0.051,0.023-0.109,0.002-0.162l-2.419-6.061c-0.022-0.053-0.062-0.096-0.115-0.117
			c-0.053-0.021-0.112-0.023-0.163-0.002l-0.002,0.002l-1.31-3.282c-0.043-0.108-0.165-0.163-0.275-0.118l-0.004,0.002l-3.19-7.994
			c-0.021-0.053-0.062-0.096-0.115-0.117c-0.05-0.021-0.11-0.022-0.162-0.002h-0.004l-0.861-2.158
			c-0.021-0.053-0.063-0.096-0.117-0.117c-0.305-0.127-0.431-0.547-0.562-0.993c-0.091-0.304-0.185-0.62-0.349-0.868
			c-0.044-0.068-0.15-0.1-0.236-0.092c-0.069,0-0.104-0.049-0.17-0.342c-0.04-0.176-0.081-0.355-0.191-0.49l-0.439-1.096
			c-0.047-0.107-0.174-0.156-0.279-0.107c-0.004,0.001-0.007,0.003-0.011,0.004c-0.042-0.068-0.099-0.115-0.142-0.15
			c-0.026-0.021-0.049-0.039-0.061-0.057c0,0-0.001-0.002-0.002-0.004c0.059-0.086,0.075-0.164,0.053-0.242
			c-0.021-0.072-0.094-0.141-0.168-0.158c-0.078-0.02-0.14-0.078-0.218-0.149c-0.098-0.091-0.22-0.204-0.404-0.252
			c-0.044-0.011-0.09-0.009-0.131,0.009l-0.739,0.295c-0.08-0.014-0.179-0.021-0.299-0.021c-0.243,0-1.226,0.066-1.542,0.365
			c-0.512,0.188-0.983,0.379-1.199,0.637c-0.05,0.061-0.063,0.144-0.034,0.215l0.03,0.076c-0.039,0.041-0.067,0.088-0.084,0.141
			c-0.055,0.173,0.027,0.33,0.087,0.445c0.034,0.064,0.108,0.094,0.182,0.096c-0.11,0.07-0.2,0.158-0.224,0.281
			c-0.014,0.07-0.012,0.168,0.069,0.275l0.295,0.752c0.158,0.425,0.32,0.864,0.68,1.108l0.826,2.067
			c0.044,0.109,0.166,0.162,0.276,0.119h0.002l0.235,0.588c0.021,0.053,0.062,0.094,0.114,0.116
			c0.053,0.022,0.111,0.022,0.163,0.001h0.002l1.176,2.945c0.021,0.053,0.062,0.094,0.113,0.115
			c0.053,0.021,0.111,0.023,0.164,0.002h0.002l2.833,7.096c0.021,0.053,0.063,0.096,0.115,0.117c0.053,0.021,0.111,0.021,0.164,0
			l4.169,10.436c0.102,0.41,0.301,0.83,0.494,1.236c0.306,0.643,0.595,1.25,0.509,1.838c0.018,0.223,0.135,0.434,0.249,0.639
			c0.184,0.33,0.258,0.502,0.141,0.631c-0.054,0.059-0.069,0.146-0.039,0.221l0.211,0.527c0.018,0.186,0.118,0.357,0.215,0.525
			c0.187,0.324,0.191,0.395,0.104,0.469c-0.069,0.059-0.092,0.156-0.06,0.24l0.135,0.33c0.29,0.697,0.563,1.355,0.358,1.922
			c-0.014,0.041-0.017,0.084-0.006,0.127c0.521,1.988,0.967,3.789,1.142,5.568c-0.026-0.01-0.052-0.016-0.079-0.025
			c-0.379-0.115-0.708-0.217-0.827-0.527c-0.008-0.02-0.019-0.039-0.032-0.057C34,41.801,33.82,41.766,33.675,41.74
			c-0.211-0.041-0.211-0.043-0.196-0.16c0.011-0.094-0.04-0.184-0.127-0.221l-0.274-0.117c-0.105-0.107-0.252-0.131-0.364-0.148
			c-0.042-0.006-0.108-0.018-0.121-0.016c0,0-0.007-0.023,0.008-0.09c0.021-0.1-0.03-0.199-0.123-0.24l-0.196-0.08
			c-0.446-0.18-0.721-0.311-0.79-0.707c-0.009-0.055-0.041-0.104-0.086-0.137c-1.146-0.816-2.157-1.576-2.897-2.623
			c-0.021-0.031-0.053-0.057-0.089-0.072l-0.77-0.332c-0.018-0.006-0.081-0.014-0.1-0.018c-0.18,0-0.267,0.15-0.309,0.254
			c-0.034,0.025-0.069,0.045-0.103,0.066c-0.189,0.117-0.403,0.248-0.639,0.781c-0.364,0.299-0.711,1.055-1.115,2.43
			c-0.06,0.213-0.123,0.455-0.134,0.654c-0.047,0.105-0.081,0.223-0.039,0.334c0.022,0.057,0.058,0.096,0.094,0.123
			c-0.017,0.037-0.044,0.088-0.088,0.16c-0.033,0.053-0.04,0.117-0.021,0.176c0.019,0.059,0.062,0.107,0.119,0.131l0.247,0.105
			c0.021,0.01,0.055,0.076,0.077,0.119c0.046,0.088,0.114,0.219,0.259,0.291c0,0.051,0.01,0.1,0.034,0.148
			c0.058,0.117,0.164,0.154,0.249,0.178c0.353,0.461,0.834,0.768,1.32,1.021c-0.006,0.064,0.001,0.131,0.033,0.193
			c0.063,0.127,0.185,0.162,0.249,0.18c0,0,0.016,0.006,0.03,0.012c-0.001,0.09,0.021,0.166,0.064,0.232
			c0.1,0.148,0.267,0.172,0.388,0.189c0.038,0.006,0.094,0.014,0.089,0.002c0.023,0.037,0.058,0.066,0.097,0.084l0.115,0.049
			c0.002,0.092,0.027,0.17,0.072,0.236c0.104,0.152,0.28,0.182,0.408,0.201c0.042,0.006,0.114,0.018,0.125,0.021
			c0.011,0.018,0.025,0.033,0.041,0.045c0.184,0.152,0.416,0.217,0.639,0.279c0.343,0.096,0.555,0.166,0.612,0.408
			c0.016,0.064,0.061,0.119,0.124,0.145l0.189,0.082l-0.002,0.004c-0.022,0.051-0.023,0.111-0.002,0.162
			c0.021,0.053,0.062,0.096,0.114,0.117l3.326,1.428l-0.002,0.004c-0.046,0.107,0.004,0.23,0.112,0.277l2.235,0.959
			c0.488,0.211,1.001,0.316,1.527,0.316c1.552,0,2.952-0.922,3.565-2.35l0.524-1.223c0.047-0.107-0.003-0.23-0.11-0.277
			l-0.005-0.002l0.769-1.791c0.046-0.107-0.004-0.232-0.111-0.279h-0.001l1.922-4.48c0.022-0.051-0.001-0.119-0.022-0.172
			c-0.016-0.037-0.054-0.076-0.094-0.104l0.495-1.152c0.031-0.072,0.02-0.154-0.027-0.215c-0.115-0.148-0.062-0.266,0.107-0.533
			c0.103-0.164,0.219-0.348,0.233-0.561c0.004-0.078-0.034-0.152-0.1-0.195c-0.028-0.018-0.046-0.031-0.055-0.037
			c0.013-0.02,0.037-0.049,0.053-0.07c0.063-0.078,0.154-0.191,0.155-0.338l0.254-0.59C45.662,34.957,45.647,34.891,45.625,34.838z"
			/>
		<path fill="#47C4AA" d="M53.588,13.742c-0.168-1.021-0.725-1.918-1.566-2.521l-1.082-0.774c-0.094-0.067-0.226-0.046-0.295,0.048
			l-0.002,0.004l-1.583-1.137c-0.094-0.066-0.227-0.045-0.296,0.049l-0.002,0.004L44.8,6.572c-0.046-0.033-0.103-0.047-0.159-0.037
			c-0.055,0.01-0.105,0.041-0.138,0.086l-0.002,0.004l-1.018-0.73c-0.062-0.044-0.144-0.053-0.214-0.02
			c-0.189,0.088-0.325-0.049-0.496-0.217c-0.138-0.137-0.293-0.291-0.5-0.35c-0.077-0.022-0.157,0-0.211,0.055
			c-0.023,0.024-0.041,0.039-0.048,0.048c-0.017-0.019-0.041-0.046-0.057-0.067c-0.064-0.078-0.154-0.189-0.292-0.223
			c-0.026-0.021-0.055-0.045-0.083-0.07c-0.112-0.094-0.239-0.199-0.379-0.248c-0.121-0.043-0.177-0.027-0.318-0.008
			c0,0-0.016,0-0.032-0.001c-0.02-0.097-0.105-0.169-0.208-0.169h-0.006c-0.002,0-0.003,0-0.006,0s-0.006,0-0.008,0V4.623
			c-0.006,0-0.643,0.047-0.783,0.245c-0.004,0.006-0.381,0.53-0.482,0.67c-0.305,0.206-1.074,0.982-1.217,1.337
			C37.812,7.326,37.531,7.723,37.439,8c-0.026,0.078-0.006,0.16,0.048,0.215c-0.018,0.061-0.023,0.127-0.005,0.193
			c0.04,0.141,0.159,0.199,0.224,0.23h0c-0.032,0.092-0.038,0.176,0.005,0.257c0.033,0.063,0.089,0.108,0.158,0.128l0.346,0.254
			c0.207,0.162,0.463,0.35,0.783,0.291l0.779,0.561c-0.083,0.02-0.163,0.053-0.243,0.082c-0.105,0.04-0.214,0.082-0.289,0.082
			c-0.001,0-0.069-0.006-0.069-0.006c-0.316,0.004-0.646,0.102-0.964,0.195c-0.491,0.146-0.956,0.256-1.25,0.086
			c-0.045-0.027-0.098-0.037-0.148-0.025l-0.413,0.084l0-0.002c-0.011-0.055-0.044-0.104-0.091-0.135
			c-0.047-0.031-0.104-0.041-0.16-0.031l-5.491,1.113l-0.001-0.002c-0.024-0.115-0.138-0.189-0.25-0.166l-5.596,1.137
			c-0.055,0.012-0.104,0.045-0.135,0.092c-0.031,0.047-0.042,0.104-0.031,0.159l0.001,0.003l-3.005,0.609
			c-0.055,0.012-0.104,0.043-0.135,0.092c-0.032,0.047-0.043,0.104-0.031,0.16l0,0.002l-7.356,1.494
			c-0.056,0.012-0.104,0.045-0.136,0.092c-0.031,0.048-0.042,0.105-0.03,0.161l0,0.001l-1.968,0.4
			c-0.061,0.012-0.114,0.051-0.144,0.105c-0.142,0.256-0.514,0.293-0.908,0.33c-0.28,0.029-0.571,0.057-0.816,0.168
			c-0.074,0.035-0.123,0.107-0.125,0.189c-0.002,0.09-0.002,0.109-0.29,0.115c-0.153,0.004-0.326,0.008-0.468,0.09l-0.908,0.184
			c-0.041,0.009-0.083,0.018-0.118,0.031c-0.062,0.021-0.106,0.084-0.125,0.15c-0.071,0.031-0.121,0.078-0.159,0.113
			c-0.016,0.016-0.032,0.031-0.052,0.047c-0.04,0.029-0.053,0.031-0.099,0.04c-0.042,0.007-0.098,0.017-0.171,0.048
			c-0.087,0.039-0.593,0.391-0.542,0.705l0.161,0.789c-0.113,0.381-0.171,1.475,0.051,1.85c0.094,0.537,0.197,1.035,0.392,1.293
			c0.049,0.065,0.131,0.098,0.213,0.08l0.043-0.008c0.095,0.133,0.225,0.156,0.306,0.156c0.088,0,0.17-0.027,0.235-0.049
			c0.045-0.016,0.082-0.043,0.108-0.08c0.085,0.172,0.27,0.291,0.465,0.186l0.675-0.133c0.38-0.064,0.809-0.139,1.082-0.444
			l1.894-0.385c0.115-0.022,0.189-0.134,0.167-0.249l-0.001-0.004l0.518-0.105c0.056-0.012,0.104-0.045,0.135-0.092
			s0.042-0.105,0.031-0.16l0-0.002l2.692-0.547c0.115-0.023,0.189-0.137,0.166-0.25l0-0.004l6.529-1.326
			c0.109-0.021,0.178-0.143,0.164-0.254l9.605-1.954c0.377-0.017,0.771-0.128,1.153-0.233c0.608-0.17,1.193-0.305,1.596-0.138
			c0.017,0.007,0.035,0.011,0.052,0.015c0.201,0.025,0.413-0.047,0.612-0.118c0.213-0.075,0.398-0.201,0.529-0.014
			c0.049,0.069,0.132,0.104,0.216,0.087l0.482-0.097c0.171,0.017,0.34-0.046,0.5-0.108c0.105-0.041,0.214-0.082,0.289-0.082
			c0.028,0,0.058,0,0.097,0.074c0.044,0.084,0.14,0.131,0.23,0.109l0.303-0.065c0.675-0.147,1.294-0.235,1.694,0.035
			c0.038,0.026,0.084,0.042,0.131,0.036c0.968-0.058,1.915-0.109,2.852-0.109c1.126,0,2.092,0.076,2.951,0.237
			c0.028,0.005,0.056,0.005,0.082-0.001L46.75,16l-0.081,0.115c-0.208,0.18-0.345,0.424-0.479,0.662
			c-0.193,0.344-0.361,0.641-0.687,0.69c-0.021,0.003-0.042,0.011-0.062,0.019c-0.17,0.084-0.242,0.254-0.3,0.389
			c-0.09,0.21-0.072,0.201-0.196,0.156c-0.092-0.031-0.19-0.002-0.246,0.076l-0.174,0.244c-0.125,0.08-0.179,0.219-0.22,0.322
			c-0.015,0.041-0.042,0.107-0.041,0.115c-0.004,0-0.031,0-0.087-0.027c-0.093-0.043-0.203-0.014-0.261,0.069L43.798,19
			c-0.263,0.388-0.444,0.625-0.86,0.625c-0.001,0-0.001,0-0.001,0c-0.055-0.006-0.111,0.018-0.152,0.054
			c-1.085,0.981-2.008,1.771-3.184,2.267c-0.036,0.016-0.067,0.041-0.09,0.072l-0.489,0.682c-0.01,0.016-0.019,0.031-0.025,0.049
			c-0.074,0.201,0.068,0.332,0.167,0.4c0.017,0.039,0.029,0.076,0.042,0.113c0.074,0.211,0.156,0.447,0.628,0.793
			c0.212,0.42,0.875,0.922,2.13,1.611c0.264,0.143,0.456,0.227,0.611,0.27c0.209,0.156,0.371,0.119,0.458,0.045
			c0.031,0.025,0.076,0.062,0.138,0.121c0.04,0.039,0.092,0.059,0.146,0.059c0.007,0,0.013,0,0.02,0
			c0.061-0.006,0.117-0.037,0.152-0.086l0.16-0.221c0.014-0.018,0.085-0.037,0.132-0.051c0.095-0.025,0.245-0.064,0.348-0.186
			c0.205,0.033,0.318-0.111,0.372-0.211c0.526-0.244,0.929-0.65,1.281-1.068c0.246,0.076,0.381-0.117,0.421-0.195
			c0,0,0.011-0.014,0.02-0.027c0.327,0.07,0.46-0.219,0.509-0.352c0.013-0.035,0.032-0.088,0.022-0.088
			c0.041-0.016,0.076-0.041,0.101-0.076l0.072-0.102c0.337,0.068,0.473-0.227,0.531-0.375c0.016-0.041,0.042-0.109,0.048-0.119
			c0.02-0.006,0.036-0.016,0.052-0.029c0.187-0.146,0.3-0.359,0.409-0.563c0.167-0.313,0.283-0.507,0.531-0.511
			c0.067-0.002,0.13-0.035,0.169-0.088l0.12-0.167l0.001,0.001c0.094,0.066,0.227,0.047,0.296-0.049l2.11-2.941l0.002,0.002
			c0.095,0.066,0.227,0.046,0.295-0.049l1.419-1.979C53.518,15.789,53.757,14.764,53.588,13.742z"/>
		<path fill="#1C5EAB" d="M32.063,15.509c-0.043-0.108-0.165-0.163-0.275-0.118l-0.004,0.002l-1.576-3.948l-5.146,1.046l2.027,5.08
			l5.361-1.09L32.063,15.509z"/>
		<path fill="#47573D" d="M19.777,17.68l-0.006-0.002l0.404-1.271c0.022-0.07,0.006-0.15-0.044-0.205
			c-0.131-0.147-0.083-0.285,0.065-0.587c0.088-0.18,0.188-0.384,0.185-0.604c-0.001-0.079-0.046-0.151-0.117-0.186
			c-0.022-0.013-0.037-0.021-0.045-0.024c0.009-0.023,0.026-0.059,0.04-0.086c0.016-0.033,0.033-0.068,0.048-0.104
			c0.074-0.168,0.088-0.318,0.102-0.463c0.006-0.066,0.012-0.135,0.026-0.207c0.006-0.027,0.016-0.051,0.024-0.076l-5.478,1.111
			l-0.003,0.01c-0.017,0.055-0.012,0.112,0.014,0.162c0.026,0.051,0.07,0.088,0.124,0.105l0.003,0.001l-0.559,1.761
			c-0.017,0.053-0.012,0.111,0.014,0.162c0.027,0.051,0.071,0.088,0.125,0.104l0.002,0.001l-1.103,3.47l2.63-0.534
			c0.115-0.023,0.189-0.137,0.166-0.25l0-0.004l3.078-0.625l0.442-1.395C19.948,17.834,19.888,17.715,19.777,17.68z"/>
	</g>
</g>
</svg>
