<?xml version="1.0" encoding="utf-8"?>
<!-- Generator: Adobe Illustrator 16.0.0, SVG Export Plug-In . SVG Version: 6.00 Build 0)  -->
<!DOCTYPE svg PUBLIC "-//W3C//DTD SVG 1.1//EN" "http://www.w3.org/Graphics/SVG/1.1/DTD/svg11.dtd">
<svg version="1.1" id="Layer_1" xmlns="http://www.w3.org/2000/svg" xmlns:xlink="http://www.w3.org/1999/xlink" x="0px" y="0px"
	 width="50px" height="50px" viewBox="0 0 50 50" enable-background="new 0 0 50 50" xml:space="preserve">
<rect x="1064" y="-1064" width="882.361" height="891.556"/>
<g>
	<path fill="#FFFFFF" d="M1718.289-750.421c-15.684,6.985-32.531,11.676-50.203,13.773c18.033-10.812,31.889-27.933,38.416-48.365
		c-16.889,10.01-35.605,17.31-55.508,21.226c-15.963-16.999-38.697-27.623-63.818-27.623c-48.297,0-87.475,39.16-87.475,87.446
		c0,6.846,0.781,13.517,2.287,19.932c-72.676-3.655-137.117-38.479-180.232-91.373c-7.512,12.912-11.85,27.934-11.85,43.979
		c0,30.323,15.445,57.081,38.922,72.775c-14.342-0.44-27.838-4.398-39.625-10.945c0,0.362,0,0.735,0,1.106
		c0,42.353,30.146,77.694,70.146,85.75c-7.352,1.995-15.062,3.072-23.033,3.072c-5.646,0-11.123-0.555-16.467-1.598
		c11.123,34.751,43.438,60.032,81.693,60.746c-29.941,23.426-67.615,37.422-108.604,37.422c-7.047,0-14.018-0.419-20.867-1.205
		c38.719,24.803,84.688,39.269,134.047,39.269c160.836,0,248.793-133.23,248.793-248.78c0-3.795-0.078-7.581-0.24-11.315
		C1691.74-717.448,1706.564-732.862,1718.289-750.421z"/>
</g>
<g>
	<path fill="#FFFFFF" d="M37.076,17.769c-0.889,0.396-1.844,0.662-2.845,0.781c1.021-0.613,1.807-1.583,2.177-2.741
		c-0.957,0.567-2.018,0.981-3.146,1.203c-0.904-0.963-2.192-1.565-3.616-1.565c-2.737,0-4.957,2.219-4.957,4.955
		c0,0.388,0.044,0.766,0.129,1.129c-4.118-0.207-7.77-2.181-10.213-5.178c-0.426,0.731-0.671,1.583-0.671,2.492
		c0,1.718,0.875,3.234,2.206,4.124c-0.812-0.025-1.578-0.25-2.246-0.621c0,0.021,0,0.042,0,0.063c0,2.4,1.708,4.402,3.975,4.859
		c-0.417,0.112-0.854,0.174-1.305,0.174c-0.32,0-0.63-0.031-0.933-0.091c0.63,1.97,2.461,3.402,4.629,3.442
		c-1.697,1.327-3.832,2.12-6.154,2.12c-0.399,0-0.794-0.023-1.183-0.067c2.194,1.405,4.799,2.225,7.596,2.225
		c9.114,0,14.098-7.55,14.098-14.097c0-0.215-0.005-0.43-0.014-0.641C35.571,19.638,36.411,18.764,37.076,17.769z"/>
</g>
</svg>
