<?xml version="1.0" encoding="utf-8"?>
<!-- Generator: Adobe Illustrator 16.0.0, SVG Export Plug-In . SVG Version: 6.00 Build 0)  -->
<!DOCTYPE svg PUBLIC "-//W3C//DTD SVG 1.1//EN" "http://www.w3.org/Graphics/SVG/1.1/DTD/svg11.dtd">
<svg version="1.1" id="Layer_1" xmlns="http://www.w3.org/2000/svg" xmlns:xlink="http://www.w3.org/1999/xlink" x="0px" y="0px"
	 width="72px" height="72px" viewBox="0 0 72 72" enable-background="new 0 0 72 72" xml:space="preserve">
<path fill="#FFFFFF" d="M62,28c-2.19,0-4.334,0.735-6,1.522V23v-1v-4c0-1.104-0.896-2-2-2H40.478C41.265,14.333,42,12.191,42,10
	c0-5.514-4.486-10-10-10S22,4.486,22,10c0,2.191,0.735,4.333,1.522,6H10c-1.104,0-2,0.896-2,2v2v5v6
	c0,0.756,0.428,1.446,1.104,1.786c0.676,0.34,1.487,0.267,2.094-0.183C11.231,32.576,14.733,30,18,30c3.309,0,6,2.691,6,6
	s-2.691,6-6,6c-3.267,0-6.769-2.576-6.8-2.6c-0.607-0.455-1.417-0.528-2.095-0.189S8,40.242,8,41v9v8v4c0,1.104,0.896,2,2,2h8h7h4
	c0.758,0,1.45-0.428,1.789-1.105s0.266-1.488-0.189-2.094C30.574,60.766,28,57.242,28,54c0-3.309,2.691-6.001,6-6.001
	s6,2.692,6,6.001c0,3.266-2.576,6.768-2.6,6.801c-0.455,0.605-0.528,1.416-0.189,2.094S38.242,64,39,64h6h5h4c1.104,0,2-0.896,2-2
	v-2V50v-3.522C57.666,47.265,59.81,48,62,48c5.514,0,10-4.486,10-10C72,32.486,67.514,28,62,28z M62,44
	c-3.267,0-6.769-2.576-6.8-2.6c-0.607-0.455-1.417-0.527-2.095-0.189C52.428,41.55,52,42.242,52,43v7v10h-2h-5h-2.522
	C43.265,58.334,44,56.19,44,54c0-5.515-4.486-10.001-10-10.001S24,48.485,24,54c0,2.19,0.735,4.334,1.522,6H25h-7h-6v-2v-8v-5.522
	C13.666,45.265,15.81,46,18,46c5.514,0,10-4.486,10-10c0-5.514-4.486-10-10-10c-2.19,0-4.334,0.735-6,1.522V25v-5h15
	c0.758,0,1.45-0.428,1.789-1.105c0.339-0.678,0.266-1.488-0.189-2.095C28.574,16.765,26,13.243,26,10c0-3.309,2.691-6,6-6
	s6,2.691,6,6c0,3.266-2.576,6.768-2.6,6.8c-0.455,0.606-0.528,1.417-0.189,2.095C35.55,19.572,36.242,20,37,20h15v2v1v10
	c0,0.756,0.428,1.446,1.104,1.786c0.676,0.34,1.486,0.267,2.094-0.183C55.231,34.576,58.733,32,62,32c3.309,0,6,2.691,6,6
	S65.309,44,62,44z"/>
</svg>
