<?xml version="1.0" encoding="utf-8"?>
<!-- Generator: Adobe Illustrator 16.0.0, SVG Export Plug-In . SVG Version: 6.00 Build 0)  -->
<!DOCTYPE svg PUBLIC "-//W3C//DTD SVG 1.1//EN" "http://www.w3.org/Graphics/SVG/1.1/DTD/svg11.dtd">
<svg version="1.1" id="Layer_1" xmlns="http://www.w3.org/2000/svg" xmlns:xlink="http://www.w3.org/1999/xlink" x="0px" y="0px"
	 width="15px" height="21px" viewBox="0 0 15 21" enable-background="new 0 0 15 21" xml:space="preserve">
<path fill="#63C9B5" d="M13.653,7.892L12.748,7.04c-0.078-0.073-0.204-0.071-0.279,0.008l-0.003,0.003l-1.325-1.248
	c-0.079-0.075-0.204-0.072-0.28,0.007l-0.002,0.003L7.542,2.69c-0.096-0.075-0.19-0.072-0.281,0.009L7.259,2.701L6.408,1.899
	C6.28,1.778,5.261,1.147,5.158,1.231c-0.024,0.019-0.043,0.03-0.05,0.037c-0.274-0.372-0.564-0.6-0.999-0.716
	C4.103,0.462,4.033,0.383,3.938,0.37c-0.005,0-0.014,0-0.018-0.002V0.367C2.367,0.108,0.831,2.706,0.716,3.724
	C0.588,3.972,0.922,4.283,1.108,4.379C1.279,4.555,1.494,4.76,1.797,4.744L2.449,5.36c-0.002,0-0.004,0.001-0.006,0.001
	c0.833,0.42,1.577,0.975,2.235,1.666l0.195,0.082C5.688,7.454,6.486,8.494,7.3,8.965c-0.001,0-0.002,0.002-0.002,0.003
	c0.029,0.021,0.058,0.045,0.087,0.065c0.984-0.221,1.345,0.545,1.083,2.298c-0.082,0.128-0.182,0.244-0.311,0.334l0.02-0.002
	c-0.604,0.728-1.595,1.097-2.159,1.697C5.9,13.469,5.52,13.774,5.53,13.938c-0.1-0.063-0.209-0.064-0.328-0.005l-0.131,0.143
	c-0.291,0.325-0.488,0.523-0.873,0.472c-1.273,0-2.595,0.912-3.473,1.79c-0.731,0.575-0.667,1.241,0.047,1.928
	c0.62,0.884,1.388,1.577,2.306,2.081c0.174,0.171,0.329,0.157,0.418,0.099c0.08,0.084,0.132,0.186,0.26,0.205
	c0.057,0.002,0.112-0.02,0.152-0.062l0.175-0.184c0.511-0.477,1.606-0.632,2.164-1.139c0.217,0.102,0.367-0.062,0.414-0.128
	c0,0,0.012-0.013,0.022-0.023c0.297-0.01,0.479-0.124,0.547-0.343c0.039-0.008,0.075-0.027,0.103-0.057l0.08-0.085
	c0.293-0.031,0.492-0.159,0.598-0.385c0.114-0.03,1.118-0.854,1.224-0.96l0.132-0.141l0.002,0.002
	c0.078,0.072,0.203,0.071,0.279-0.009l2.319-2.462l0.002,0.001c0.08,0.075,0.204,0.072,0.28-0.008l1.559-1.657
	C15.172,11.263,15.12,9.556,13.653,7.892z"/>
</svg>
