<?xml version="1.0" encoding="utf-8"?>
<!-- Generator: Adobe Illustrator 16.0.0, SVG Export Plug-In . SVG Version: 6.00 Build 0)  -->
<!DOCTYPE svg PUBLIC "-//W3C//DTD SVG 1.1//EN" "http://www.w3.org/Graphics/SVG/1.1/DTD/svg11.dtd">
<svg version="1.1" id="Layer_1" xmlns="http://www.w3.org/2000/svg" xmlns:xlink="http://www.w3.org/1999/xlink" x="0px" y="0px"
	 width="72px" height="72px" viewBox="0 0 72 72" enable-background="new 0 0 72 72" xml:space="preserve">
<path fill="#f9644f" d="M61.456,32.869C61.801,32.15,62,31.349,62,30.5v-1c0-3.033-2.467-5.5-5.5-5.5h-9.913
	C48.893,19.049,50,15.145,50,12c0-2.473,0-10-6-10c-3.027,0-5.025,1.855-5.94,5.515c-0.73,2.921-2.269,4.208-3.756,5.454
	c-0.211,0.177-0.416,0.349-0.613,0.52L19.254,26H10c-1.104,0-2,0.896-2,2v24c0,1.104,0.896,2,2,2h9.023
	c1.584,1.869,5.887,6,12.977,6h11.5H50h0.5c3.033,0,5.5-2.467,5.5-5.5v-1c0-0.521-0.078-1.022-0.213-1.5H56.5
	c3.033,0,5.5-2.467,5.5-5.5v-1c0-0.85-0.199-1.65-0.544-2.369C62.983,42.152,64,40.444,64,38.5v-1
	C64,35.556,62.983,33.848,61.456,32.869z M58,36h0.25c0.825,0,1.75,0.675,1.75,1.5v1c0,0.825-0.675,1.5-1.5,1.5h-2h-17
	c-0.825,0-1.5-0.675-1.5-1.5v-1c0-0.825,0.675-1.5,1.5-1.5h2h15H58z M56.25,28c0.825,0,1.75,0.675,1.75,1.5v1
	c0,0.825-0.675,1.5-1.5,1.5h-15c-0.825,0-1.5-0.675-1.5-1.5v-1c0-0.825,0.675-1.5,1.5-1.5H56H56.25z M21.664,50.891
	C21.293,50.334,20.669,50,20,50h-8V30h8c0.481,0,0.946-0.173,1.31-0.489l15-13c0.181-0.156,0.369-0.313,0.562-0.475
	c1.698-1.421,4.023-3.368,5.069-7.551C42.562,6,43.326,6,44,6c0.495,0,2,0,2,6c0,2.861-1.273,6.82-3.854,12H41.5
	c-3.033,0-5.5,2.467-5.5,5.5v1c0,0.849,0.199,1.65,0.544,2.369c-1.089,0.697-1.918,1.764-2.304,3.025
	c-2.072,1.702-5.879,2.101-7.244,2.105C25.894,38.002,25,38.896,25,40c0,1.104,0.896,2,2,2c0.521,0,4.125-0.058,7.369-1.536
	c0.215,0.562,0.515,1.081,0.892,1.536C34.474,42.951,34,44.172,34,45.5v1c0,2.604,1.819,4.785,4.253,5.352
	C38.089,52.373,38,52.926,38,53.5v1c0,0.521,0.078,1.022,0.213,1.5H32C25.227,56,21.801,51.091,21.664,50.891z M52,53.5v1
	c0,0.825-0.675,1.5-1.5,1.5H50h-6.5c-0.825,0-1.5-0.675-1.5-1.5v-1c0-0.825,0.675-1.5,1.5-1.5H50h0.25C51.075,52,52,52.675,52,53.5z
	 M58,46.5c0,0.825-0.675,1.5-1.5,1.5h-6h-7h-4c-0.825,0-1.5-0.675-1.5-1.5v-1c0-0.825,0.675-1.5,1.5-1.5H56h0.25
	c0.825,0,1.75,0.675,1.75,1.5V46.5z"/>
</svg>

