<?xml version="1.0" encoding="utf-8"?>
<!-- Generator: Adobe Illustrator 16.0.0, SVG Export Plug-In . SVG Version: 6.00 Build 0)  -->
<!DOCTYPE svg PUBLIC "-//W3C//DTD SVG 1.1//EN" "http://www.w3.org/Graphics/SVG/1.1/DTD/svg11.dtd">
<svg version="1.1" id="Layer_1" xmlns="http://www.w3.org/2000/svg" xmlns:xlink="http://www.w3.org/1999/xlink" x="0px" y="0px"
	 width="50px" height="50px" viewBox="0 0 50 50" enable-background="new 0 0 50 50" xml:space="preserve">
<path id="Facebook_3_" fill="#FFFFFF" d="M21.543,17.651c0,0.667,0,3.648,0,3.648H18.91v4.461h2.633v12.242h5.407V25.76h3.629
	c0,0,0.34-2.139,0.504-4.478c-0.472,0-4.112,0-4.112,0s0-2.595,0-3.049c0-0.456,0.591-1.068,1.172-1.068c0.583,0,1.811,0,2.947,0
	c0-0.607,0-2.706,0-4.646c-1.518,0-3.245,0-4.007,0C21.409,12.519,21.543,16.985,21.543,17.651z"/>
</svg>
