<?xml version="1.0" encoding="utf-8"?>
<!-- Generator: Adobe Illustrator 16.0.0, SVG Export Plug-In . SVG Version: 6.00 Build 0)  -->
<!DOCTYPE svg PUBLIC "-//W3C//DTD SVG 1.1//EN" "http://www.w3.org/Graphics/SVG/1.1/DTD/svg11.dtd">
<svg version="1.1" id="Layer_1" xmlns="http://www.w3.org/2000/svg" xmlns:xlink="http://www.w3.org/1999/xlink" x="0px" y="0px"
	 width="16.945px" height="16.945px" viewBox="0 0 16.945 16.945" enable-background="new 0 0 16.945 16.945" xml:space="preserve">
<path d="M16.945,15.531l-4.822-4.822c0.828-1.117,1.322-2.493,1.322-3.986C13.445,3.016,10.429,0,6.723,0C3.016,0,0,3.016,0,6.723
	s3.016,6.723,6.723,6.723c1.494,0,2.87-0.495,3.986-1.322l4.822,4.822L16.945,15.531z M2,6.723C2,4.119,4.119,2,6.723,2
	s4.722,2.119,4.722,4.723c0,2.604-2.118,4.723-4.722,4.723S2,9.326,2,6.723z"/>
</svg>
