<?xml version="1.0" encoding="utf-8"?>
<!-- Generator: Adobe Illustrator 21.0.2, SVG Export Plug-In . SVG Version: 6.00 Build 0)  -->
<svg version="1.1" xmlns="http://www.w3.org/2000/svg" xmlns:xlink="http://www.w3.org/1999/xlink" x="0px" y="0px"
	 viewBox="0 0 50 50" style="enable-background:new 0 0 50 50;" xml:space="preserve">
<style type="text/css">
	.st0{display:none;}
	.st1{display:inline;}
	.st2{fill:#FFFFFF;}
</style>
<g id="Layer_1" class="st0">
	<rect x="1064" y="-1064" class="st1" width="882.4" height="891.6"/>
	<g class="st1">
		<path class="st2" d="M1718.3-750.4c-15.7,7-32.5,11.7-50.2,13.8c18-10.8,31.9-27.9,38.4-48.4c-16.9,10-35.6,17.3-55.5,21.2
			c-16-17-38.7-27.6-63.8-27.6c-48.3,0-87.5,39.2-87.5,87.4c0,6.8,0.8,13.5,2.3,19.9c-72.7-3.7-137.1-38.5-180.2-91.4
			c-7.5,12.9-11.8,27.9-11.8,44c0,30.3,15.4,57.1,38.9,72.8c-14.3-0.4-27.8-4.4-39.6-10.9c0,0.4,0,0.7,0,1.1
			c0,42.4,30.1,77.7,70.1,85.8c-7.4,2-15.1,3.1-23,3.1c-5.6,0-11.1-0.6-16.5-1.6c11.1,34.8,43.4,60,81.7,60.7
			c-29.9,23.4-67.6,37.4-108.6,37.4c-7,0-14-0.4-20.9-1.2c38.7,24.8,84.7,39.3,134,39.3c160.8,0,248.8-133.2,248.8-248.8
			c0-3.8-0.1-7.6-0.2-11.3C1691.7-717.4,1706.6-732.9,1718.3-750.4z"/>
	</g>
	<g class="st1">
		<path class="st2" d="M37.1,17.8c-0.9,0.4-1.8,0.7-2.8,0.8c1-0.6,1.8-1.6,2.2-2.7c-1,0.6-2,1-3.1,1.2c-0.9-1-2.2-1.6-3.6-1.6
			c-2.7,0-5,2.2-5,5c0,0.4,0,0.8,0.1,1.1c-4.1-0.2-7.8-2.2-10.2-5.2c-0.4,0.7-0.7,1.6-0.7,2.5c0,1.7,0.9,3.2,2.2,4.1
			c-0.8,0-1.6-0.3-2.2-0.6c0,0,0,0,0,0.1c0,2.4,1.7,4.4,4,4.9c-0.4,0.1-0.9,0.2-1.3,0.2c-0.3,0-0.6,0-0.9-0.1c0.6,2,2.5,3.4,4.6,3.4
			c-1.7,1.3-3.8,2.1-6.2,2.1c-0.4,0-0.8,0-1.2-0.1c2.2,1.4,4.8,2.2,7.6,2.2c9.1,0,14.1-7.5,14.1-14.1c0-0.2,0-0.4,0-0.6
			C35.6,19.6,36.4,18.8,37.1,17.8z"/>
	</g>
</g>
<g id="Layer_2">
	<path class="st2" d="M37.9,25.3c-0.4-1.2-1.8-1.8-3-1.4l-2.5,0.8l-1.7-4.9l2.4-0.8c1.2-0.4,1.9-1.7,1.5-2.9c-0.4-1.2-1.8-1.8-3-1.4
		l-2.4,0.8l-0.8-2.4c-0.4-1.2-1.8-1.8-3-1.4l0,0c-1.2,0.4-1.9,1.7-1.5,2.9l0.8,2.4l-5.2,1.7l-0.8-2.3c-0.4-1.2-1.8-1.8-3-1.4
		c-1.2,0.4-1.9,1.7-1.5,2.9l0.8,2.3l-2.5,0.8c-1.2,0.4-1.9,1.7-1.5,2.9l0,0c0.4,1.2,1.8,1.8,3,1.4l2.5-0.8l1.7,4.9l-2.4,0.8
		c-1.2,0.4-1.9,1.7-1.5,2.9c0.4,1.2,1.8,1.8,3,1.4l2.4-0.8l0.9,2.5c0.4,1.2,1.8,1.8,3,1.4c1.2-0.4,1.9-1.7,1.5-2.9l-0.9-2.5l5.2-1.7
		l0.9,2.5c0.4,1.2,1.8,1.8,3,1.4c1.2-0.4,1.9-1.7,1.5-2.9L33.9,29l2.5-0.8C37.6,27.8,38.3,26.5,37.9,25.3z M22.7,27.8L21,22.9
		l5.2-1.7l1.7,4.9L22.7,27.8z"/>
</g>
</svg>
